G04 DesignSpark PCB Gerber Version 10.0 Build 5299*
G04 #@! TF.Part,Single*
G04 #@! TF.FileFunction,Legend,Top*
G04 #@! TF.FilePolarity,Positive*
%FSLAX35Y35*%
%MOIN*%
%ADD12C,0.00500*%
%ADD10C,0.00591*%
%ADD11C,0.00600*%
%ADD13C,0.01000*%
G04 #@! TD.AperFunction*
X0Y0D02*
D02*
D10*
X24050Y86163D02*
Y87639D01*
Y86901D02*
X19620D01*
X20359Y86163D01*
X36441Y36596D02*
X33488D01*
X34965D02*
Y39057D01*
X36441D02*
X33488D01*
Y40533D02*
X36441Y41764D01*
X33488Y42994D01*
X35703Y44470D02*
X36195Y44717D01*
X36441Y45209D01*
Y46193D01*
X36195Y46685D01*
X35703Y46931D01*
X35211Y46685D01*
X34965Y46193D01*
Y45209D01*
X34719Y44717D01*
X34226Y44470D01*
X33734Y44717D01*
X33488Y45209D01*
Y46193D01*
X33734Y46685D01*
X34226Y46931D01*
X33488Y48407D02*
X35703D01*
X36195Y48654D01*
X36441Y49146D01*
Y50130D01*
X36195Y50622D01*
X35703Y50868D01*
X33488D01*
X36441Y52344D02*
X33488D01*
Y54067D01*
X33734Y54559D01*
X34226Y54805D01*
X34719Y54559D01*
X34965Y54067D01*
Y52344D01*
X36441Y56774D02*
Y57758D01*
Y57266D02*
X33488D01*
X33980Y56774D01*
X36441Y60711D02*
Y61695D01*
Y61203D02*
X33488D01*
X33980Y60711D01*
X116680Y37945D02*
Y78177D01*
G75*
G03*
X106283I-5198J0D01*
G01*
Y38177D01*
G75*
G03*
X116689I5203J0D01*
G01*
D02*
D11*
X57657Y20564D02*
Y17983D01*
Y43005D02*
Y40424D01*
Y66627D02*
Y64046D01*
Y89855D02*
Y87275D01*
X59769Y13274D02*
X63157D01*
Y16814D01*
X59769Y25274D02*
X63157D01*
Y21733D01*
X59769Y35715D02*
X63157D01*
Y39255D01*
X59769Y47715D02*
X63157D01*
Y44174D01*
X59769Y59337D02*
X63157D01*
Y62877D01*
X59769Y71337D02*
X63157D01*
Y67796D01*
X59769Y82565D02*
X63157D01*
Y86105D01*
X59769Y94565D02*
X63157D01*
Y91025D01*
X111712Y27025D02*
Y30962D01*
X113681Y28993D02*
X109744D01*
D02*
D12*
X20483Y30815D02*
G75*
G03*
Y16641I0J-7087D01*
G01*
G75*
G03*
Y30815I0J7087D01*
G01*
X43415Y29486D02*
Y7486D01*
X51415D01*
Y29486D01*
X43415D01*
Y52715D02*
Y30715D01*
X51415D01*
Y52715D01*
X43415D01*
Y76337D02*
Y54337D01*
X51415D01*
Y76337D01*
X43415D01*
Y99565D02*
Y77565D01*
X51415D01*
Y99565D01*
X43415D01*
X45470Y103069D02*
X67470D01*
Y111069D01*
X45470D01*
Y103069D01*
X68219Y40904D02*
Y18904D01*
X76219D01*
Y40904D01*
X68219D01*
Y64526D02*
Y42526D01*
X76219D01*
Y64526D01*
X68219D01*
Y88541D02*
Y66541D01*
X76219D01*
Y88541D01*
X68219D01*
X84467Y70974D02*
Y54974D01*
X91467D01*
Y70974D01*
X84467D01*
Y88691D02*
Y72691D01*
X91467D01*
Y88691D01*
X84467D01*
Y106407D02*
Y90407D01*
X91467D01*
Y106407D01*
X84467D01*
X84691Y21285D02*
X100691D01*
Y28285D01*
X84691D01*
Y21285D01*
X92734Y70974D02*
Y54974D01*
X99734D01*
Y70974D01*
X92734D01*
Y88691D02*
Y72691D01*
X99734D01*
Y88691D01*
X92734D01*
Y106407D02*
Y90407D01*
X99734D01*
Y106407D01*
X92734D01*
X100531Y13325D02*
X84531D01*
Y6325D01*
X100531D01*
Y13325D01*
X100691Y41671D02*
X84691D01*
Y34671D01*
X100691D01*
Y41671D01*
X113003Y99712D02*
G75*
G03*
Y85539I0J-7087D01*
G01*
G75*
G03*
Y99712I0J7087D01*
G01*
D02*
D13*
X15250Y83171D02*
Y33171D01*
X25250D01*
Y83171D01*
X15250D01*
X0Y0D02*
M02*
