G04 DesignSpark PCB Gerber Version 10.0 Build 5299*
G04 #@! TF.Part,Single*
G04 #@! TF.FileFunction,Soldermask,Top*
G04 #@! TF.FilePolarity,Negative*
%FSLAX35Y35*%
%MOIN*%
G04 #@! TA.AperFunction,SMDPad,CuDef*
%ADD25R,0.06100X0.06600*%
G04 #@! TA.AperFunction,ComponentPad*
%ADD26R,0.06600X0.06600*%
G04 #@! TA.AperFunction,SMDPad,CuDef*
%ADD23R,0.06900X0.06900*%
G04 #@! TD.AperFunction*
%ADD12C,0.00500*%
G04 #@! TA.AperFunction,SMDPad,CuDef*
%ADD29C,0.05324*%
%ADD72R,0.05600X0.02900*%
G04 #@! TA.AperFunction,ComponentPad*
%ADD24C,0.06600*%
%ADD28C,0.08868*%
G04 #@! TA.AperFunction,SMDPad,CuDef*
%ADD27R,0.06600X0.06100*%
G04 #@! TA.AperFunction,ComponentPad*
%ADD73C,0.12805*%
G04 #@! TD.AperFunction*
X0Y0D02*
D02*
D12*
X16546Y9948D02*
G75*
G03*
X24420I3937J0D01*
G01*
G75*
G03*
X16546I-3937J0D01*
G01*
G36*
X16546Y9948D02*
G75*
G03*
X24420I3937J0D01*
G01*
G75*
G03*
X16546I-3937J0D01*
G01*
G37*
X34263Y92626D02*
G75*
G03*
X42137I3937J0D01*
G01*
G75*
G03*
X34263I-3937J0D01*
G01*
G36*
X34263Y92626D02*
G75*
G03*
X42137I3937J0D01*
G01*
G75*
G03*
X34263I-3937J0D01*
G01*
G37*
X107098Y58177D02*
G75*
G03*
X114972I3937J0D01*
G01*
G75*
G03*
X107098I-3937J0D01*
G01*
G36*
X107098Y58177D02*
G75*
G03*
X114972I3937J0D01*
G01*
G75*
G03*
X107098I-3937J0D01*
G01*
G37*
D02*
D23*
X47415Y11786D03*
Y25186D03*
Y35015D03*
Y48415D03*
Y58637D03*
Y72037D03*
Y81865D03*
Y95265D03*
X49770Y107069D03*
X63170D03*
X72219Y23204D03*
Y36604D03*
Y46826D03*
Y60226D03*
Y70841D03*
Y84241D03*
D02*
D24*
X111483Y38177D03*
Y78177D03*
D02*
D25*
X87967Y58474D03*
Y67474D03*
Y76191D03*
Y85191D03*
Y93907D03*
Y102907D03*
X96234Y58474D03*
Y67474D03*
Y76191D03*
Y85191D03*
Y93907D03*
Y102907D03*
D02*
D26*
X20250Y38171D03*
Y48171D03*
Y58171D03*
Y68171D03*
Y78171D03*
D02*
D27*
X88031Y9825D03*
X88191Y24785D03*
Y38171D03*
X97031Y9825D03*
X97191Y24785D03*
Y38171D03*
D02*
D28*
X113003Y92626D03*
D02*
D29*
X77337Y7856D03*
D02*
D72*
X56557Y15524D03*
Y23024D03*
Y37965D03*
Y45465D03*
Y61587D03*
Y69087D03*
Y84815D03*
Y92315D03*
X64257Y19274D03*
Y41715D03*
Y65337D03*
Y88565D03*
D02*
D73*
X20483Y23728D03*
X0Y0D02*
M02*
