G04 DesignSpark PCB Gerber Version 10.0 Build 5299*
G04 #@! TF.Part,Single*
G04 #@! TF.FileFunction,Copper,L2,Bot*
G04 #@! TF.FilePolarity,Positive*
%FSLAX35Y35*%
%MOIN*%
G04 #@! TA.AperFunction,SMDPad,CuDef*
%ADD91R,0.01575X0.02362*%
%ADD90R,0.02165X0.03937*%
%ADD86R,0.02200X0.05200*%
%ADD92R,0.02362X0.02362*%
%ADD80R,0.03937X0.04291*%
%ADD87R,0.03150X0.03150*%
G04 #@! TA.AperFunction,ComponentPad*
%ADD70R,0.06000X0.06000*%
G04 #@! TA.AperFunction,SMDPad,CuDef*
%ADD17R,0.06300X0.06300*%
G04 #@! TD.AperFunction*
%ADD12C,0.00500*%
%ADD16C,0.00800*%
%ADD13C,0.01000*%
%ADD14C,0.01500*%
%ADD79C,0.01969*%
G04 #@! TA.AperFunction,ViaPad*
%ADD15C,0.03200*%
G04 #@! TA.AperFunction,SMDPad,CuDef*
%ADD20C,0.04724*%
G04 #@! TA.AperFunction,ComponentPad*
%ADD18C,0.06000*%
G04 #@! TA.AperFunction,SMDPad,CuDef*
%ADD88R,0.02756X0.01181*%
%ADD83R,0.02362X0.01575*%
%ADD21R,0.05000X0.02300*%
%ADD85R,0.07500X0.02300*%
%ADD84R,0.02362X0.02362*%
%ADD89R,0.04331X0.02362*%
%ADD81R,0.05512X0.02953*%
%ADD82R,0.04291X0.03937*%
G04 #@! TA.AperFunction,ComponentPad*
%ADD22C,0.12205*%
G04 #@! TD.AperFunction*
X0Y0D02*
D02*
D12*
X12376Y31031D02*
Y5578D01*
G75*
G03*
X14695Y3772I2196J427D01*
G01*
G75*
G02*
X14791Y3774I97J-1696D01*
G01*
X98955D01*
G75*
G02*
X99052Y3772I0J-1700D01*
G01*
G75*
G03*
X101412Y6005I123J2233D01*
G01*
G75*
G03*
X101408Y6128I-2241J-3D01*
G01*
G75*
G02*
X101406Y6225I1696J97D01*
G01*
Y11659D01*
G75*
G02*
X101403Y11919I13496J253D01*
G01*
G75*
G02*
X102126Y16281I13511J0D01*
G01*
X98118Y12272D01*
G75*
G02*
X97020Y11818I-1096J1096D01*
G01*
X96166D01*
Y11270D01*
X97813D01*
Y5230D01*
X91419D01*
Y11270D01*
X93066D01*
Y11818D01*
X81343D01*
Y8181D01*
X76480D01*
Y9561D01*
X73530D01*
Y10343D01*
X65424D01*
G75*
G02*
X64396Y10768I-3J1450D01*
G01*
X60676Y14487D01*
Y12187D01*
G75*
G02*
X60250Y11160I-1450J0D01*
G01*
X53561Y4470D01*
G75*
G02*
X52533Y4044I-1027J1024D01*
G01*
X32061D01*
G75*
G02*
X31034Y4470I0J1450D01*
G01*
X29302Y6202D01*
G75*
G02*
X28931Y6835I1024J1027D01*
G01*
G75*
G02*
X26914Y9948I1395J3114D01*
G01*
G75*
G02*
X33738I3412J0D01*
G01*
G75*
G02*
X32381Y7224I-3412J0D01*
G01*
X32662Y6944D01*
X36582D01*
G75*
G02*
X38200Y13361I1618J3004D01*
G01*
G75*
G02*
X41289Y11398I0J-3412D01*
G01*
X52844D01*
X55020Y13575D01*
Y14706D01*
G75*
G02*
X54738Y14309I-1306J630D01*
G01*
X53954Y13526D01*
G75*
G02*
X52927Y13099I-1027J1024D01*
G01*
X41510D01*
G75*
G02*
X40483Y13526I0J1450D01*
G01*
X39385Y14623D01*
G75*
G02*
X34788Y17822I-1185J3200D01*
G01*
G75*
G02*
X40060Y20683I3412J0D01*
G01*
Y21035D01*
X38910Y22185D01*
G75*
G02*
X38509Y22947I1025J1026D01*
G01*
X35673D01*
Y22748D01*
X31598D01*
Y27610D01*
X32304D01*
X24301Y35613D01*
Y34120D01*
X16199D01*
Y41739D01*
X15132D01*
G75*
G02*
X15007Y41744I1J1550D01*
G01*
Y33322D01*
X25759D01*
G75*
G02*
X26787Y32897I3J-1450D01*
G01*
X29543Y30141D01*
G75*
G02*
X29968Y29116I-1025J-1026D01*
G01*
G75*
G02*
Y29115I-610J0D01*
G01*
G75*
G02*
Y29113I-610J-1D01*
G01*
Y21843D01*
X30586Y21225D01*
G75*
G02*
X33738Y17822I-260J-3402D01*
G01*
G75*
G02*
X26914I-3412J0D01*
G01*
G75*
G02*
X27704Y20006I3412J0D01*
G01*
X27493Y20217D01*
G75*
G02*
X27178Y20688I1025J1025D01*
G01*
G75*
G02*
X13131Y23728I-6694J3040D01*
G01*
G75*
G02*
X17443Y30422I7352J0D01*
G01*
X13557D01*
G75*
G02*
X12376Y31031I0J1450D01*
G01*
X84220Y11469D02*
X91012D01*
Y5031D01*
X84220D01*
Y11469D01*
X17215Y9948D02*
G75*
G02*
X23752I3269J0D01*
G01*
G75*
G02*
X17215I-3269J0D01*
G01*
X12626Y8250D02*
G36*
X12626Y8250D02*
Y4902D01*
G75*
G03*
X13545Y4018I1946J1104D01*
G01*
X100202D01*
G75*
G03*
X101412Y6005I-1027J1987D01*
G01*
G75*
G03*
Y6011I-1880J3D01*
G01*
G75*
G03*
X101408Y6128I-1923J0D01*
G01*
G75*
G02*
X101406Y6225I1951J104D01*
G01*
Y8250D01*
X97813D01*
Y5230D01*
X91419D01*
Y8250D01*
X91012D01*
Y5031D01*
X84220D01*
Y8250D01*
X81343D01*
Y8181D01*
X76480D01*
Y8250D01*
X57340D01*
X53561Y4470D01*
G75*
G02*
X52533Y4044I-1026J1022D01*
G01*
X32061D01*
G75*
G02*
X31034Y4470I-1J1449D01*
G01*
X29302Y6202D01*
G75*
G02*
X28931Y6835I1028J1029D01*
G01*
G75*
G02*
X27367Y8250I1395J3114D01*
G01*
X23276D01*
G75*
G02*
X17691I-2793J1698D01*
G01*
X12626D01*
G37*
X32381Y7224D02*
G36*
X32381Y7224D02*
X32662Y6944D01*
X36582D01*
G75*
G02*
X35241Y8250I1618J3004D01*
G01*
X33286D01*
G75*
G02*
X32381Y7224I-2959J1698D01*
G01*
G37*
X12626Y30761D02*
G36*
X12626Y30761D02*
Y8250D01*
X17691D01*
G75*
G02*
X17215Y9948I2793J1698D01*
G01*
G75*
G02*
X23752I3269J0D01*
G01*
G75*
G02*
X23276Y8250I-3269J0D01*
G01*
X27367D01*
G75*
G02*
X26914Y9948I2959J1698D01*
G01*
G75*
G02*
X33738I3412J0D01*
G01*
G75*
G02*
X33286Y8250I-3411J-1D01*
G01*
X35241D01*
G75*
G02*
X34788Y9948I2959J1698D01*
G01*
G75*
G02*
X38200Y13361I3412J0D01*
G01*
G75*
G02*
X41289Y11398I1J-3411D01*
G01*
X52844D01*
X55020Y13575D01*
Y14706D01*
G75*
G02*
X54738Y14309I-1312J635D01*
G01*
X53954Y13526D01*
G75*
G02*
X52927Y13099I-1026J1022D01*
G01*
X41510D01*
G75*
G02*
X40483Y13526I-1J1449D01*
G01*
X39385Y14623D01*
G75*
G02*
X34788Y17822I-1186J3199D01*
G01*
Y17822D01*
Y17823D01*
G75*
G02*
X40060Y20683I3412J0D01*
G01*
Y21035D01*
X38910Y22185D01*
G75*
G02*
X38509Y22947I1024J1025D01*
G01*
X35673D01*
Y22748D01*
X31598D01*
Y27610D01*
X32304D01*
X24301Y35613D01*
Y34120D01*
X16199D01*
Y41494D01*
X15007D01*
Y33322D01*
X25759D01*
G75*
G02*
X26787Y32897I3J-1449D01*
G01*
X29543Y30141D01*
G75*
G02*
X29968Y29116I-1028J-1026D01*
G01*
Y29115D01*
Y29113D01*
Y21843D01*
X30586Y21225D01*
G75*
G02*
X33738Y17823I-259J-3402D01*
G01*
G75*
G02*
Y17822I-4511J0D01*
G01*
G75*
G02*
X26914I-3412J0D01*
G01*
G75*
G02*
X27704Y20006I3413J0D01*
G01*
X27493Y20217D01*
G75*
G02*
X27178Y20688I1035J1032D01*
G01*
G75*
G02*
X13131Y23728I-6694J3041D01*
G01*
G75*
G02*
X17443Y30422I7354J0D01*
G01*
X13557D01*
G75*
G02*
X12626Y30761I0J1451D01*
G01*
G37*
X60250Y11160D02*
G36*
X60250Y11160D02*
X57340Y8250D01*
X76480D01*
Y9561D01*
X73530D01*
Y10343D01*
X65424D01*
G75*
G02*
X64396Y10768I-3J1449D01*
G01*
X60676Y14487D01*
Y12187D01*
G75*
G02*
Y12186I-1961J0D01*
G01*
G75*
G02*
X60250Y11160I-1449J0D01*
G01*
G37*
X81343Y11818D02*
G36*
X81343Y11818D02*
Y8250D01*
X84220D01*
Y11469D01*
X91012D01*
Y8250D01*
X91419D01*
Y11270D01*
X93066D01*
Y11818D01*
X81343D01*
G37*
X96166D02*
G36*
X96166Y11818D02*
Y11270D01*
X97813D01*
Y8250D01*
X101406D01*
Y11659D01*
G75*
G02*
X101403Y11887I10730J225D01*
G01*
G75*
G02*
Y11919I10692J16D01*
G01*
G75*
G02*
Y11921I14098J1D01*
G01*
G75*
G02*
X101876Y15465I13501J0D01*
G01*
Y16031D01*
X98118Y12272D01*
G75*
G02*
X97020Y11818I-1096J1096D01*
G01*
X96166D01*
G37*
X12376Y88730D02*
Y63028D01*
G75*
G02*
X12533Y63214I1182J-840D01*
G01*
X13711Y64392D01*
G75*
G02*
X14738Y64818I1027J-1024D01*
G01*
X16199D01*
Y72222D01*
X21756D01*
X23220Y73687D01*
G75*
G02*
X23507Y73921I1274J-1271D01*
G01*
X16000D01*
Y82421D01*
X24500D01*
Y74216D01*
X29435D01*
Y76616D01*
X35287D01*
X38922Y80255D01*
Y87341D01*
G75*
G02*
X39451Y88615I1800J0D01*
G01*
X41417Y90580D01*
G75*
G02*
X42691Y91109I1274J-1272D01*
G01*
X44002D01*
Y92506D01*
X50041D01*
Y91109D01*
X51876D01*
Y92506D01*
X52821D01*
Y93419D01*
X52488D01*
Y99455D01*
X56754D01*
Y93419D01*
X56421D01*
Y92506D01*
X57915D01*
Y86112D01*
X51876D01*
Y87509D01*
X50041D01*
Y86112D01*
X44002D01*
Y87509D01*
X43437D01*
X42522Y86595D01*
Y79510D01*
G75*
G02*
X41996Y78238I-1800J0D01*
G01*
X41518Y77759D01*
X67536D01*
X69946Y80170D01*
Y91518D01*
X68726D01*
Y97907D01*
X74766D01*
Y94525D01*
X77707D01*
Y96376D01*
X82007D01*
G75*
G02*
X82461Y97456I1550J-16D01*
G01*
X83721Y98716D01*
G75*
G02*
X84818Y99170I1096J-1096D01*
G01*
X85156D01*
Y104991D01*
X82156D01*
Y98274D01*
X77459D01*
Y104991D01*
X74965D01*
Y98317D01*
X68528D01*
Y104991D01*
X66215D01*
Y104238D01*
X60963D01*
Y106448D01*
X56754D01*
Y105230D01*
X52488D01*
Y111266D01*
X56754D01*
Y110048D01*
X62202D01*
G75*
G02*
X63476Y109519I0J-1800D01*
G01*
X63509Y109486D01*
X66215D01*
Y109059D01*
X87307D01*
G75*
G02*
X89341Y107025I0J-2034D01*
G01*
Y105774D01*
X89459D01*
Y99170D01*
X89911D01*
X93563Y102822D01*
G75*
G02*
X94661Y103276I1096J-1096D01*
G01*
X94784D01*
Y106426D01*
G75*
G02*
X93584Y108644I1450J2218D01*
G01*
G75*
G02*
X98884I2650J0D01*
G01*
G75*
G02*
X97684Y106426I-2650J0D01*
G01*
Y104711D01*
X100829D01*
Y98317D01*
X94789D01*
Y99664D01*
X91649Y96524D01*
G75*
G02*
X90552Y96070I-1096J1096D01*
G01*
X89407D01*
Y89075D01*
X88807D01*
Y87667D01*
X88830Y87644D01*
X94852D01*
Y83084D01*
X95262Y82674D01*
Y87844D01*
X102053D01*
Y81407D01*
X96529D01*
X100874Y77063D01*
G75*
G02*
X101328Y75967I-1096J-1096D01*
G01*
Y24367D01*
G75*
G02*
X100874Y23270I-1550J0D01*
G01*
X94181Y16578D01*
G75*
G02*
X93083Y16124I-1096J1096D01*
G01*
X73593D01*
Y15474D01*
X63994D01*
Y19872D01*
X73593D01*
Y19224D01*
X92443D01*
X98228Y25009D01*
Y75324D01*
X92077Y81475D01*
X91657D01*
G75*
G02*
X91032Y81606I0J1550D01*
G01*
X88463D01*
Y83627D01*
X86161Y85929D01*
G75*
G02*
X85707Y87025I1096J1096D01*
G01*
Y89075D01*
X85107D01*
Y79380D01*
X85695D01*
Y73341D01*
X79301D01*
Y79380D01*
X82007D01*
Y89075D01*
X77707D01*
Y90925D01*
X73733D01*
G75*
G02*
X73546Y90935I1J1800D01*
G01*
Y79424D01*
G75*
G02*
X73017Y78150I-1800J0D01*
G01*
X70827Y75959D01*
X71915Y74872D01*
G75*
G02*
X72444Y73597I-1272J-1274D01*
G01*
Y68490D01*
X73663D01*
Y67093D01*
X77663D01*
Y67766D01*
X84096D01*
Y63301D01*
X77663D01*
Y63493D01*
X73663D01*
Y62096D01*
X67624D01*
Y68490D01*
X68844D01*
Y72852D01*
X67536Y74159D01*
X48678D01*
G75*
G02*
X49477Y73694I-475J-1737D01*
G01*
X51529Y71642D01*
G75*
G02*
X52058Y70368I-1271J-1274D01*
G01*
Y68719D01*
X53809D01*
Y64317D01*
X46707D01*
Y68719D01*
X48458D01*
Y69622D01*
X47457Y70623D01*
X37837D01*
Y68215D01*
X29435D01*
Y70616D01*
X25241D01*
X24301Y69677D01*
Y64818D01*
X39148D01*
G75*
G02*
X40175Y64392I0J-1450D01*
G01*
X42111Y62456D01*
X54407D01*
Y64967D01*
X61510D01*
Y61893D01*
X62681Y60789D01*
G75*
G02*
X63247Y59479I-1234J-1310D01*
G01*
Y58120D01*
X64644D01*
Y52081D01*
X63247D01*
Y52007D01*
X65382Y49872D01*
X73593D01*
Y45535D01*
X81183D01*
Y44559D01*
X81762D01*
Y46703D01*
X88156D01*
Y40663D01*
X81762D01*
Y41459D01*
X81183D01*
Y40482D01*
X73593D01*
Y40474D01*
X63994D01*
Y44872D01*
X73573D01*
Y45474D01*
X63994D01*
Y46205D01*
G75*
G02*
X63761Y46402I1041J1469D01*
G01*
X60176Y49987D01*
G75*
G02*
X59647Y51262I1272J1274D01*
G01*
Y52081D01*
X58250D01*
Y58120D01*
X59647D01*
Y58702D01*
X57741Y60499D01*
X57224Y59982D01*
G75*
G02*
X56196Y59556I-1027J1024D01*
G01*
X41510D01*
G75*
G02*
X40483Y59982I0J1450D01*
G01*
X39939Y60526D01*
Y55624D01*
X38235D01*
Y53199D01*
X39215D01*
Y53007D01*
X40722D01*
G75*
G02*
X41750Y52581I0J-1450D01*
G01*
X42927Y51403D01*
G75*
G02*
X43354Y50376I-1024J-1027D01*
G01*
Y50073D01*
X52494D01*
Y45274D01*
X43354D01*
Y44872D01*
X52293D01*
Y44124D01*
X53937D01*
G75*
G02*
X54964Y43697I0J-1450D01*
G01*
X57494Y41167D01*
G75*
G02*
X57920Y40140I-1024J-1027D01*
G01*
Y30534D01*
G75*
G02*
X58203Y30931I1306J-630D01*
G01*
X60969Y33697D01*
G75*
G02*
X61996Y34124I1027J-1024D01*
G01*
X63994D01*
Y34872D01*
X73573D01*
Y35474D01*
X63994D01*
Y39872D01*
X73593D01*
Y39827D01*
X81183D01*
Y38850D01*
X81762D01*
Y39100D01*
X88156D01*
Y33065D01*
X81762D01*
Y35750D01*
X81183D01*
Y34774D01*
X73593D01*
Y30474D01*
X63994D01*
Y31224D01*
X62597D01*
X60676Y29303D01*
Y27926D01*
X61447Y28697D01*
G75*
G02*
X62474Y29124I1027J-1024D01*
G01*
X63994D01*
Y29872D01*
X73593D01*
Y25474D01*
X63994D01*
Y26224D01*
X63075D01*
X63039Y26187D01*
Y16226D01*
X66022Y13243D01*
X73530D01*
Y14026D01*
X76679D01*
Y15207D01*
X81144D01*
Y14918D01*
X96380D01*
X102558Y21097D01*
Y70061D01*
G75*
G02*
X102927Y71065I1550J0D01*
G01*
Y111012D01*
G75*
G03*
X102146Y112579I-1962J0D01*
G01*
X36357D01*
G75*
G02*
X36302Y112580I-4J1707D01*
G01*
G75*
G03*
X34333Y111530I-72J-2236D01*
G01*
G75*
G03*
X34263Y111012I1893J-518D01*
G01*
Y104625D01*
G75*
G02*
X20295Y90657I-13968J0D01*
G01*
X14697D01*
G75*
G03*
X12376Y88730I-156J-2173D01*
G01*
X37872Y98407D02*
G75*
G02*
X43572I2850J0D01*
G01*
G75*
G02*
X37872I-2850J0D01*
G01*
X45520Y111266D02*
X49785D01*
Y105230D01*
X45520D01*
Y106698D01*
X44841D01*
G75*
G02*
X40041Y108248I-2150J1550D01*
G01*
G75*
G02*
X44841Y109798I2650J0D01*
G01*
X45520D01*
Y111266D01*
X45321Y99656D02*
X49986D01*
Y93219D01*
X45321D01*
Y99656D01*
X34931Y92626D02*
G75*
G02*
X41469I3269J0D01*
G01*
G75*
G02*
X38037Y89361I-3269J0D01*
G01*
Y81415D01*
X29234D01*
Y90215D01*
X35993D01*
G75*
G02*
X34931Y92626I2207J2411D01*
G01*
X60537Y85506D02*
X66577D01*
Y79112D01*
X60537D01*
Y80759D01*
X57915D01*
Y79112D01*
X51876D01*
Y80759D01*
X50041D01*
Y79112D01*
X44002D01*
Y85506D01*
X50041D01*
Y83859D01*
X51876D01*
Y85506D01*
X57915D01*
Y83859D01*
X60537D01*
Y85506D01*
X65357Y92506D02*
X66577D01*
Y86112D01*
X60537D01*
Y92506D01*
X61757D01*
Y95380D01*
X60963D01*
Y100628D01*
X66215D01*
Y95380D01*
X65357D01*
Y92506D01*
X94591Y97909D02*
X101028D01*
Y91118D01*
X94591D01*
Y97909D01*
X98078Y56478D02*
G75*
G02*
Y56475I-610J-2D01*
G01*
Y33053D01*
G75*
G02*
X97652Y32026I-1450J0D01*
G01*
X93718Y28093D01*
G75*
G02*
X92691Y27666I-1027J1024D01*
G01*
X88758D01*
Y26096D01*
X87011D01*
Y25837D01*
X88758D01*
Y19797D01*
X82364D01*
Y25837D01*
X84111D01*
Y26096D01*
X82364D01*
Y32136D01*
X88758D01*
Y30566D01*
X92090D01*
X94388Y32864D01*
X88563D01*
Y39301D01*
X95178D01*
Y40465D01*
X88563D01*
Y46902D01*
X95178D01*
Y55878D01*
X94452Y56603D01*
X94333D01*
Y55821D01*
X87900D01*
Y59362D01*
X87701D01*
Y62091D01*
X86761Y61151D01*
Y60219D01*
G75*
G02*
X86307Y59122I-1550J0D01*
G01*
X84141Y56957D01*
G75*
G02*
X84096Y56914I-1092J1097D01*
G01*
Y55821D01*
X77663D01*
Y60285D01*
X83085D01*
X83661Y60861D01*
Y61793D01*
G75*
G02*
X84115Y62889I1550J0D01*
G01*
X87658Y66433D01*
G75*
G02*
X87900Y66630I1096J-1096D01*
G01*
Y67766D01*
X89566D01*
Y73341D01*
X86301D01*
Y79380D01*
X92695D01*
Y73341D01*
X92666D01*
Y67766D01*
X94333D01*
Y64224D01*
X94531D01*
Y59503D01*
X95050D01*
G75*
G02*
X96078Y59078I3J-1450D01*
G01*
X97653Y57504D01*
G75*
G02*
X98078Y56478I-1025J-1026D01*
G01*
X54207Y72667D02*
X61707D01*
Y67868D01*
X54207D01*
Y72667D01*
X67425Y61689D02*
X73862D01*
Y54898D01*
X67425D01*
Y61689D01*
X51051Y58319D02*
X57843D01*
Y51882D01*
X51051D01*
Y58319D01*
X75165Y32335D02*
X81957D01*
Y25898D01*
X75165D01*
Y32335D01*
X75364Y25837D02*
X81758D01*
Y19797D01*
X75364D01*
Y21124D01*
X73593D01*
Y20474D01*
X63994D01*
Y24872D01*
X73593D01*
Y24224D01*
X75364D01*
Y25837D01*
X63039Y22817D02*
G36*
X63039Y22817D02*
Y16226D01*
X65772Y13493D01*
X73530D01*
Y14026D01*
X76679D01*
Y15207D01*
X81144D01*
Y14918D01*
X96380D01*
X102558Y21097D01*
Y22817D01*
X100420D01*
X94181Y16578D01*
G75*
G02*
X93083Y16124I-1096J1096D01*
G01*
X73593D01*
Y15474D01*
X63994D01*
Y19872D01*
X73593D01*
Y19224D01*
X92443D01*
X96036Y22817D01*
X88758D01*
Y19797D01*
X82364D01*
Y22817D01*
X81758D01*
Y19797D01*
X75364D01*
Y21124D01*
X73593D01*
Y20474D01*
X63994D01*
Y22817D01*
X63039D01*
G37*
X60676Y29116D02*
G36*
X60676Y29116D02*
Y27926D01*
X61447Y28697D01*
G75*
G02*
X62327Y29116I1026J-1022D01*
G01*
X60676D01*
G37*
X63039Y26187D02*
G36*
X63039Y26187D02*
Y22817D01*
X63994D01*
Y24872D01*
X73593D01*
Y24224D01*
X75364D01*
Y25837D01*
X81758D01*
Y22817D01*
X82364D01*
Y25837D01*
X84111D01*
Y26096D01*
X82364D01*
Y29116D01*
X81957D01*
Y25898D01*
X75165D01*
Y29116D01*
X73593D01*
Y25474D01*
X63994D01*
Y26224D01*
X63075D01*
X63039Y26187D01*
G37*
X87011Y26096D02*
G36*
X87011Y26096D02*
Y25837D01*
X88758D01*
Y22817D01*
X96036D01*
X98228Y25009D01*
Y29116D01*
X94742D01*
X93718Y28093D01*
G75*
G02*
X92691Y27666I-1026J1022D01*
G01*
X88758D01*
Y26096D01*
X87011D01*
G37*
X100874Y23270D02*
G36*
X100874Y23270D02*
X100420Y22817D01*
X102558D01*
Y29116D01*
X101328D01*
Y24367D01*
G75*
G02*
X100874Y23270I-1551J0D01*
G01*
G37*
X43354Y45274D02*
G36*
X43354Y45274D02*
Y44872D01*
X52293D01*
Y44124D01*
X53937D01*
G75*
G02*
X54964Y43697I1J-1449D01*
G01*
X57494Y41167D01*
G75*
G02*
X57920Y40141I-1022J-1026D01*
G01*
G75*
G02*
Y40140I-1961J0D01*
G01*
Y30534D01*
G75*
G02*
X58203Y30931I1312J-635D01*
G01*
X60969Y33697D01*
G75*
G02*
X61996Y34124I1026J-1022D01*
G01*
X63994D01*
Y34872D01*
X73573D01*
Y35474D01*
X63994D01*
Y39872D01*
X73593D01*
Y39827D01*
X81183D01*
Y38850D01*
X81762D01*
Y39100D01*
X88156D01*
Y33065D01*
X81762D01*
Y35750D01*
X81183D01*
Y34774D01*
X73593D01*
Y30474D01*
X63994D01*
Y31224D01*
X62597D01*
X60676Y29303D01*
Y29116D01*
X62327D01*
G75*
G02*
X62474Y29124I147J-1441D01*
G01*
X63994D01*
Y29872D01*
X73593D01*
Y29116D01*
X75165D01*
Y32335D01*
X81957D01*
Y29116D01*
X82364D01*
Y32136D01*
X88758D01*
Y30566D01*
X92090D01*
X94388Y32864D01*
X88563D01*
Y39301D01*
X95178D01*
Y40465D01*
X88563D01*
Y46902D01*
X95178D01*
Y49589D01*
X73593D01*
Y45535D01*
X81183D01*
Y44559D01*
X81762D01*
Y46703D01*
X88156D01*
Y40663D01*
X81762D01*
Y41459D01*
X81183D01*
Y40482D01*
X73593D01*
Y40474D01*
X63994D01*
Y44872D01*
X73573D01*
Y45474D01*
X63994D01*
Y46205D01*
G75*
G02*
X63761Y46402I1054J1484D01*
G01*
X60574Y49589D01*
X52494D01*
Y45274D01*
X43354D01*
G37*
X97652Y32026D02*
G36*
X97652Y32026D02*
X94742Y29116D01*
X98228D01*
Y49589D01*
X98078D01*
Y33053D01*
G75*
G02*
Y33052I-1961J0D01*
G01*
G75*
G02*
X97652Y32026I-1449J0D01*
G01*
G37*
X101328Y49589D02*
G36*
X101328Y49589D02*
Y29116D01*
X102558D01*
Y49589D01*
X101328D01*
G37*
X38235Y55100D02*
G36*
X38235Y55100D02*
Y53199D01*
X39215D01*
Y53007D01*
X40722D01*
G75*
G02*
X41750Y52581I1J-1449D01*
G01*
X42927Y51403D01*
G75*
G02*
X43354Y50377I-1022J-1026D01*
G01*
G75*
G02*
Y50376I-1961J0D01*
G01*
Y50073D01*
X52494D01*
Y49589D01*
X60574D01*
X60176Y49987D01*
G75*
G02*
X59647Y51262I1272J1274D01*
G01*
Y52081D01*
X58250D01*
Y55100D01*
X57843D01*
Y51882D01*
X51051D01*
Y55100D01*
X38235D01*
G37*
X63247Y52081D02*
G36*
X63247Y52081D02*
Y52007D01*
X65382Y49872D01*
X73593D01*
Y49589D01*
X95178D01*
Y55100D01*
X73862D01*
Y54898D01*
X67425D01*
Y55100D01*
X64644D01*
Y52081D01*
X63247D01*
G37*
X98078Y55100D02*
G36*
X98078Y55100D02*
Y49589D01*
X98228D01*
Y55100D01*
X98078D01*
G37*
X101328D02*
G36*
X101328Y55100D02*
Y49589D01*
X102558D01*
Y55100D01*
X101328D01*
G37*
X38235Y55624D02*
G36*
X38235Y55624D02*
Y55100D01*
X51051D01*
Y58293D01*
X39939D01*
Y55624D01*
X38235D01*
G37*
X57843Y58293D02*
G36*
X57843Y58293D02*
Y55100D01*
X58250D01*
Y58120D01*
X59647D01*
Y58293D01*
X57843D01*
G37*
X63247D02*
G36*
X63247Y58293D02*
Y58120D01*
X64644D01*
Y55100D01*
X67425D01*
Y58293D01*
X63247D01*
G37*
X73862D02*
G36*
X73862Y58293D02*
Y55100D01*
X95178D01*
Y55878D01*
X94452Y56603D01*
X94333D01*
Y55821D01*
X87900D01*
Y58293D01*
X85478D01*
X84141Y56957D01*
G75*
G02*
X84096Y56914I-826J819D01*
G01*
Y55821D01*
X77663D01*
Y58293D01*
X73862D01*
G37*
X96863D02*
G36*
X96863Y58293D02*
X97653Y57504D01*
G75*
G02*
X98078Y56478I-1028J-1026D01*
G01*
Y56478D01*
Y56475D01*
Y55100D01*
X98228D01*
Y58293D01*
X96863D01*
G37*
X101328D02*
G36*
X101328Y58293D02*
Y55100D01*
X102558D01*
Y58293D01*
X101328D01*
G37*
X12626Y70268D02*
G36*
X12626Y70268D02*
Y63307D01*
X13711Y64392D01*
G75*
G02*
X14738Y64818I1026J-1022D01*
G01*
X16199D01*
Y70268D01*
X12626D01*
G37*
X24301Y69677D02*
G36*
X24301Y69677D02*
Y64818D01*
X39148D01*
G75*
G02*
X40175Y64392I1J-1449D01*
G01*
X42111Y62456D01*
X54407D01*
Y64967D01*
X61510D01*
Y61893D01*
X62681Y60789D01*
G75*
G02*
X63247Y59479I-1235J-1311D01*
G01*
Y58293D01*
X67425D01*
Y61689D01*
X73862D01*
Y58293D01*
X77663D01*
Y60285D01*
X83085D01*
X83661Y60861D01*
Y61793D01*
G75*
G02*
X84115Y62889I1551J0D01*
G01*
X87658Y66433D01*
G75*
G02*
X87900Y66630I1084J-1082D01*
G01*
Y67766D01*
X89566D01*
Y70268D01*
X72444D01*
Y68490D01*
X73663D01*
Y67093D01*
X77663D01*
Y67766D01*
X84096D01*
Y63301D01*
X77663D01*
Y63493D01*
X73663D01*
Y62096D01*
X67624D01*
Y68490D01*
X68844D01*
Y70268D01*
X61707D01*
Y67868D01*
X54207D01*
Y70268D01*
X52058D01*
Y68719D01*
X53809D01*
Y64317D01*
X46707D01*
Y68719D01*
X48458D01*
Y69622D01*
X47813Y70268D01*
X37837D01*
Y68215D01*
X29435D01*
Y70268D01*
X24892D01*
X24301Y69677D01*
G37*
X39939Y60526D02*
G36*
X39939Y60526D02*
Y58293D01*
X51051D01*
Y58319D01*
X57843D01*
Y58293D01*
X59647D01*
Y58702D01*
X57741Y60499D01*
X57224Y59982D01*
G75*
G02*
X56196Y59556I-1026J1022D01*
G01*
X41510D01*
G75*
G02*
X40483Y59982I-1J1449D01*
G01*
X39939Y60526D01*
G37*
X86307Y59122D02*
G36*
X86307Y59122D02*
X85478Y58293D01*
X87900D01*
Y59362D01*
X87701D01*
Y62091D01*
X86761Y61151D01*
Y60219D01*
G75*
G02*
X86307Y59122I-1551J0D01*
G01*
G37*
X92666Y70268D02*
G36*
X92666Y70268D02*
Y67766D01*
X94333D01*
Y64224D01*
X94531D01*
Y59503D01*
X95050D01*
G75*
G02*
X96078Y59078I3J-1449D01*
G01*
X96863Y58293D01*
X98228D01*
Y70268D01*
X92666D01*
G37*
X101328D02*
G36*
X101328Y70268D02*
Y58293D01*
X102558D01*
Y70061D01*
G75*
G02*
X102572Y70268I1553J0D01*
G01*
X101328D01*
G37*
X12626Y82309D02*
G36*
X12626Y82309D02*
Y70268D01*
X16199D01*
Y72222D01*
X21756D01*
X23220Y73687D01*
G75*
G02*
X23507Y73921I1261J-1255D01*
G01*
X16000D01*
Y82309D01*
X12626D01*
G37*
X24500D02*
G36*
X24500Y82309D02*
Y74216D01*
X29435D01*
Y76616D01*
X35287D01*
X38922Y80255D01*
Y82309D01*
X38037D01*
Y81415D01*
X29234D01*
Y82309D01*
X24500D01*
G37*
X25241Y70616D02*
G36*
X25241Y70616D02*
X24892Y70268D01*
X29435D01*
Y70616D01*
X25241D01*
G37*
X37837Y70623D02*
G36*
X37837Y70623D02*
Y70268D01*
X47813D01*
X47457Y70623D01*
X37837D01*
G37*
X41996Y78238D02*
G36*
X41996Y78238D02*
X41518Y77759D01*
X67536D01*
X69946Y80170D01*
Y82309D01*
X66577D01*
Y79112D01*
X60537D01*
Y80759D01*
X57915D01*
Y79112D01*
X51876D01*
Y80759D01*
X50041D01*
Y79112D01*
X44002D01*
Y82309D01*
X42522D01*
Y79510D01*
Y79509D01*
G75*
G02*
X41996Y78238I-1799J0D01*
G01*
G37*
X48678Y74159D02*
G36*
X48678Y74159D02*
G75*
G02*
X49477Y73694I-474J-1736D01*
G01*
X51529Y71642D01*
G75*
G02*
X52058Y70368I-1270J-1274D01*
G01*
Y70368D01*
Y70268D01*
X54207D01*
Y72667D01*
X61707D01*
Y70268D01*
X68844D01*
Y72852D01*
X67536Y74159D01*
X48678D01*
G37*
X70827Y75959D02*
G36*
X70827Y75959D02*
X71915Y74872D01*
G75*
G02*
X72444Y73597I-1272J-1274D01*
G01*
Y70268D01*
X89566D01*
Y73341D01*
X86301D01*
Y79380D01*
X92695D01*
Y73341D01*
X92666D01*
Y70268D01*
X98228D01*
Y75324D01*
X92077Y81475D01*
X91657D01*
G75*
G02*
X91032Y81606I-2J1543D01*
G01*
X88463D01*
Y82309D01*
X85107D01*
Y79380D01*
X85695D01*
Y73341D01*
X79301D01*
Y79380D01*
X82007D01*
Y82309D01*
X73546D01*
Y79424D01*
G75*
G02*
X73017Y78150I-1800J0D01*
G01*
X70827Y75959D01*
G37*
X96529Y81407D02*
G36*
X96529Y81407D02*
X100874Y77063D01*
G75*
G02*
X101328Y75967I-1097J-1096D01*
G01*
Y70268D01*
X102572D01*
G75*
G02*
X102677Y70656I1539J-208D01*
G01*
Y82309D01*
X102053D01*
Y81407D01*
X96529D01*
G37*
X12626Y88655D02*
G36*
X12626Y88655D02*
Y82309D01*
X16000D01*
Y82421D01*
X24500D01*
Y82309D01*
X29234D01*
Y88655D01*
X12626D01*
G37*
X38037D02*
G36*
X38037Y88655D02*
Y82309D01*
X38922D01*
Y87341D01*
G75*
G02*
X39451Y88615I1800J0D01*
G01*
X39491Y88655D01*
X38037D01*
G37*
X42522Y86595D02*
G36*
X42522Y86595D02*
Y82309D01*
X44002D01*
Y85506D01*
X50041D01*
Y83859D01*
X51876D01*
Y85506D01*
X57915D01*
Y83859D01*
X60537D01*
Y85506D01*
X66577D01*
Y82309D01*
X69946D01*
Y88655D01*
X66577D01*
Y86112D01*
X60537D01*
Y88655D01*
X57915D01*
Y86112D01*
X51876D01*
Y87509D01*
X50041D01*
Y86112D01*
X44002D01*
Y87509D01*
X43437D01*
X42522Y86595D01*
G37*
X73546Y88655D02*
G36*
X73546Y88655D02*
Y82309D01*
X82007D01*
Y88655D01*
X73546D01*
G37*
X85107D02*
G36*
X85107Y88655D02*
Y82309D01*
X88463D01*
Y83627D01*
X86161Y85929D01*
G75*
G02*
X85707Y87025I1097J1096D01*
G01*
Y88655D01*
X85107D01*
G37*
X88807D02*
G36*
X88807Y88655D02*
Y87667D01*
X88830Y87644D01*
X94852D01*
Y83084D01*
X95262Y82674D01*
Y87844D01*
X102053D01*
Y82309D01*
X102677D01*
Y88655D01*
X88807D01*
G37*
X12626Y89524D02*
G36*
X12626Y89524D02*
Y88655D01*
X29234D01*
Y90215D01*
X35993D01*
G75*
G02*
X34931Y92625I2206J2411D01*
G01*
Y92626D01*
G75*
G02*
X35532Y94514I3269J0D01*
G01*
X29932D01*
G75*
G02*
X20295Y90657I-9637J10112D01*
G01*
X14697D01*
G75*
G03*
X12626Y89524I-157J-2173D01*
G01*
G37*
X38037Y89361D02*
G36*
X38037Y89361D02*
Y88655D01*
X39491D01*
X41417Y90580D01*
G75*
G02*
X42691Y91109I1274J-1272D01*
G01*
X44002D01*
Y92506D01*
X50041D01*
Y91109D01*
X51876D01*
Y92506D01*
X52821D01*
Y93419D01*
X52488D01*
Y94514D01*
X49986D01*
Y93219D01*
X45321D01*
Y94514D01*
X40868D01*
G75*
G02*
X41469Y92626I-2668J-1888D01*
G01*
Y92625D01*
G75*
G02*
X38037Y89361I-3268J0D01*
G01*
G37*
X56421Y93419D02*
G36*
X56421Y93419D02*
Y92506D01*
X57915D01*
Y88655D01*
X60537D01*
Y92506D01*
X61757D01*
Y94514D01*
X56754D01*
Y93419D01*
X56421D01*
G37*
X65357Y94514D02*
G36*
X65357Y94514D02*
Y92506D01*
X66577D01*
Y88655D01*
X69946D01*
Y91518D01*
X68726D01*
Y94514D01*
X65357D01*
G37*
X73546Y90935D02*
G36*
X73546Y90935D02*
Y88655D01*
X82007D01*
Y89075D01*
X77707D01*
Y90925D01*
X73733D01*
G75*
G02*
X73546Y90935I-4J1724D01*
G01*
G37*
X85107Y89075D02*
G36*
X85107Y89075D02*
Y88655D01*
X85707D01*
Y89075D01*
X85107D01*
G37*
X88807D02*
G36*
X88807Y89075D02*
Y88655D01*
X102677D01*
Y94514D01*
X101028D01*
Y91118D01*
X94591D01*
Y94514D01*
X89407D01*
Y89075D01*
X88807D01*
G37*
X32803Y98407D02*
G36*
X32803Y98407D02*
G75*
G02*
X29932Y94514I-12508J6217D01*
G01*
X35532D01*
G75*
G02*
X40868I2668J-1888D01*
G01*
X45321D01*
Y98407D01*
X43572D01*
G75*
G02*
X37872I-2850J0D01*
G01*
X32803D01*
G37*
X49986D02*
G36*
X49986Y98407D02*
Y94514D01*
X52488D01*
Y98407D01*
X49986D01*
G37*
X56754D02*
G36*
X56754Y98407D02*
Y94514D01*
X61757D01*
Y95380D01*
X60963D01*
Y98407D01*
X56754D01*
G37*
X65357Y95380D02*
G36*
X65357Y95380D02*
Y94514D01*
X68726D01*
Y97907D01*
X74766D01*
Y94525D01*
X77707D01*
Y96376D01*
X82007D01*
G75*
G02*
X82461Y97456I1549J-15D01*
G01*
X83412Y98407D01*
X82156D01*
Y98274D01*
X77459D01*
Y98407D01*
X74965D01*
Y98317D01*
X68528D01*
Y98407D01*
X66215D01*
Y95380D01*
X65357D01*
G37*
X89407Y96070D02*
G36*
X89407Y96070D02*
Y94514D01*
X94591D01*
Y97909D01*
X101028D01*
Y94514D01*
X102677D01*
Y98407D01*
X100829D01*
Y98317D01*
X94789D01*
Y98407D01*
X93533D01*
X91649Y96524D01*
G75*
G02*
X90552Y96070I-1096J1096D01*
G01*
X89407D01*
G37*
X34263Y104625D02*
G36*
X34263Y104625D02*
G75*
G02*
X32803Y98407I-13969J0D01*
G01*
X37872D01*
G75*
G02*
X43572I2850J0D01*
G01*
X45321D01*
Y99656D01*
X49986D01*
Y98407D01*
X52488D01*
Y99455D01*
X56754D01*
Y98407D01*
X60963D01*
Y100628D01*
X66215D01*
Y98407D01*
X68528D01*
Y104991D01*
X66215D01*
Y104238D01*
X60963D01*
Y106448D01*
X56754D01*
Y105230D01*
X52488D01*
Y108248D01*
X49785D01*
Y105230D01*
X45520D01*
Y106698D01*
X44841D01*
G75*
G02*
X40041Y108248I-2150J1550D01*
G01*
Y108248D01*
X34263D01*
Y104625D01*
G37*
X74965Y104991D02*
G36*
X74965Y104991D02*
Y98407D01*
X77459D01*
Y104991D01*
X74965D01*
G37*
X82156D02*
G36*
X82156Y104991D02*
Y98407D01*
X83412D01*
X83721Y98716D01*
G75*
G02*
X84818Y99170I1096J-1096D01*
G01*
X85156D01*
Y104991D01*
X82156D01*
G37*
X89341Y107025D02*
G36*
X89341Y107025D02*
Y105774D01*
X89459D01*
Y99170D01*
X89911D01*
X93563Y102822D01*
G75*
G02*
X94661Y103276I1096J-1096D01*
G01*
X94784D01*
Y106426D01*
G75*
G02*
X93614Y108248I1450J2219D01*
G01*
X88933D01*
G75*
G02*
X89341Y107025I-1625J-1223D01*
G01*
Y107025D01*
G37*
X93533Y98407D02*
G36*
X93533Y98407D02*
X94789D01*
Y99664D01*
X93533Y98407D01*
G37*
X97684Y106426D02*
G36*
X97684Y106426D02*
Y104711D01*
X100829D01*
Y98407D01*
X102677D01*
Y108248D01*
X98855D01*
G75*
G02*
X97684Y106426I-2620J396D01*
G01*
G37*
X34263Y111012D02*
G36*
X34263Y111012D02*
Y108248D01*
X40041D01*
G75*
G02*
X44841Y109798I2650J-1D01*
G01*
X45520D01*
Y111266D01*
X49785D01*
Y108248D01*
X52488D01*
Y111266D01*
X56754D01*
Y110048D01*
X62202D01*
G75*
G02*
X63476Y109519I0J-1800D01*
G01*
X63509Y109486D01*
X66215D01*
Y109059D01*
X87307D01*
G75*
G02*
X88933Y108248I0J-2034D01*
G01*
X93614D01*
G75*
G02*
X93584Y108644I2620J394D01*
G01*
G75*
G02*
X98884I2650J0D01*
G01*
G75*
G02*
X98855Y108248I-2650J-1D01*
G01*
X102677D01*
Y111971D01*
G75*
G03*
X102418Y112331I-1710J-957D01*
G01*
X35202D01*
G75*
G03*
X34333Y111530I1028J-1987D01*
G01*
G75*
G03*
X34263Y111012I1915J-521D01*
G01*
G37*
X22452Y9948D02*
G75*
G02*
X18515I-1969J0D01*
G01*
G75*
G02*
X22452I1969J0D01*
G01*
G36*
X22452Y9948D02*
G75*
G02*
X18515I-1969J0D01*
G01*
G75*
G02*
X22452I1969J0D01*
G01*
G37*
X40169Y92626D02*
G75*
G02*
X36231I-1969J0D01*
G01*
G75*
G02*
X40169I1969J0D01*
G01*
G36*
X40169Y92626D02*
G75*
G02*
X36231I-1969J0D01*
G01*
G75*
G02*
X40169I1969J0D01*
G01*
G37*
X113003Y58177D02*
G75*
G02*
X109066I-1969J0D01*
G01*
G75*
G02*
X113003I1969J0D01*
G01*
G36*
X113003Y58177D02*
G75*
G02*
X109066I-1969J0D01*
G01*
G75*
G02*
X113003I1969J0D01*
G01*
G37*
D02*
D13*
X16522Y19767D02*
X15108Y18352D01*
X16522Y27689D02*
X15108Y29104D01*
X17750Y78171D02*
X15750D01*
X20250Y75671D02*
Y73671D01*
Y80671D02*
Y82671D01*
X22750Y78171D02*
X24750D01*
X24445Y19767D02*
X25859Y18352D01*
X30486Y46439D02*
X28124D01*
X25368Y49195D01*
Y51557D01*
X24187Y52738D01*
X15132D01*
Y43289D01*
X23400D01*
X25368Y41321D01*
Y40927D01*
X27337Y38959D01*
X29742D01*
X30486Y48998D02*
X33636D01*
X30986Y85816D02*
X28986D01*
X33348Y25179D02*
X31348D01*
X33636Y24498D02*
Y22498D01*
Y48998D02*
X36785D01*
X33636Y83166D02*
Y81167D01*
Y88466D02*
Y90467D01*
X36286Y85816D02*
X38285D01*
X39622Y98407D02*
X37622D01*
X40722Y97307D02*
Y95307D01*
Y99507D02*
Y101507D01*
X41822Y98407D02*
X43822D01*
X42691Y108248D02*
X47652D01*
X47022Y82309D02*
X54896D01*
X47070Y96437D02*
X45069D01*
X47494Y48324D02*
Y50325D01*
X47652Y94968D02*
Y92967D01*
Y97905D02*
Y99904D01*
X48235Y96437D02*
X50234D01*
X50744Y47674D02*
X52742D01*
X52832Y53485D02*
X50978Y51632D01*
X52832Y56715D02*
X50978Y58569D01*
X55958Y70268D02*
X53959D01*
X56062Y53485D02*
X57915Y51632D01*
X56062Y56715D02*
X57915Y58569D01*
X57958Y69618D02*
Y67616D01*
Y70918D02*
Y72919D01*
X59958Y70268D02*
X61959D01*
X63557Y82309D02*
X54896D01*
X68794Y17674D02*
X93085D01*
X99778Y24367D01*
Y75967D01*
X92719Y83025D01*
X91657D01*
Y84625D01*
X68794Y22674D02*
X78418D01*
X78561Y22817D01*
X68794Y37674D02*
X77005D01*
X77378Y37300D01*
X68794Y42674D02*
X77043D01*
X77378Y43009D01*
X69029Y56678D02*
X67175Y54825D01*
X69029Y59908D02*
X67175Y61762D01*
X70278Y101712D02*
X68278D01*
X72259Y56678D02*
X74112Y54825D01*
X72259Y59908D02*
X74112Y61762D01*
X73215Y101712D02*
X75215D01*
X76946Y27501D02*
X75093Y25648D01*
X76946Y30731D02*
X75093Y32585D01*
X77378Y37300D02*
X83741D01*
X84959Y36083D01*
X77378Y43009D02*
X84285D01*
X84959Y43683D01*
X78911Y9931D02*
Y7931D01*
Y13368D02*
X94156D01*
X79061Y101378D02*
X77207Y99524D01*
X79061Y102871D02*
X77207Y104725D01*
X79593Y10219D02*
X81593D01*
X80176Y27501D02*
X82030Y25648D01*
X80176Y30731D02*
X82030Y32585D01*
X80554Y101378D02*
X82407Y99524D01*
X80554Y102871D02*
X82407Y104725D01*
X80880Y58053D02*
X83045D01*
X85211Y60219D01*
Y61793D01*
X88754Y65337D01*
X90919D01*
X91116Y65533D01*
X83557Y92725D02*
Y96360D01*
X84817Y97620D01*
X90553D01*
X94659Y101726D01*
X97596D01*
X97809Y101514D01*
X83557Y92725D02*
Y77419D01*
X82498Y76360D01*
X85970Y8250D02*
X83970D01*
X87616Y6781D02*
Y4781D01*
X91116Y65533D02*
Y74742D01*
X89498Y76360D01*
X91657Y84625D02*
X89657D01*
X87257Y87025D01*
Y92725D01*
X91959Y34615D02*
Y32616D01*
Y37552D02*
Y39553D01*
Y42215D02*
Y40215D01*
Y45152D02*
Y47152D01*
X92781Y61793D02*
X94781D01*
X94156Y13368D02*
X97022D01*
X104108Y20455D01*
Y70061D01*
X111483Y78224D01*
Y78177D01*
X94616Y8250D02*
Y12907D01*
X94156Y13368D01*
X96194Y92899D02*
X94341Y91045D01*
X96194Y96129D02*
X94341Y97982D01*
X98657Y83156D02*
Y81156D01*
Y86093D02*
Y88093D01*
X99424Y92899D02*
X101278Y91045D01*
X99424Y96129D02*
X101278Y97982D01*
X100303Y84625D02*
X102301D01*
D02*
D14*
X33636Y72416D02*
X24495D01*
X20250Y68171D01*
X33636Y72416D02*
Y72423D01*
X40722Y79510D01*
Y87341D01*
X42691Y89309D01*
X47022D01*
X54896D01*
X47494Y47674D02*
X50131D01*
X54447Y51989D01*
Y55100D01*
X50258Y66518D02*
Y70368D01*
X48203Y72423D01*
X36385D01*
X36378Y72416D01*
X33636D01*
X54621Y96437D02*
Y89584D01*
X54896Y89309D01*
X54621Y108248D02*
X62202D01*
X63588Y106861D01*
X61447Y55100D02*
Y59479D01*
X57958Y62768D01*
X63557Y89309D02*
Y97972D01*
X63588Y98003D01*
Y106861D02*
X63635D01*
X63798Y107025D01*
X68281Y75959D02*
X37179D01*
X33636Y72416D01*
X68281Y75959D02*
X71746Y79424D01*
Y94712D01*
X68794Y47674D02*
X65035D01*
X61447Y51262D01*
Y55100D01*
X70644Y65293D02*
Y73597D01*
X68281Y75959D01*
X70644Y65293D02*
X80640D01*
X80880Y65533D01*
X79807Y102125D02*
X72159D01*
X71746Y101712D01*
X79857Y92725D02*
X73733D01*
X71746Y94712D01*
D02*
D15*
X40722Y98407D03*
X42691Y108248D03*
X96234Y108644D03*
D02*
D16*
X20250Y48171D02*
X21667D01*
X25762Y44077D01*
X36392D01*
X36785Y44470D01*
Y46439D01*
X20250Y58171D02*
X23478D01*
X25368Y56281D01*
Y54707D01*
X28518Y51557D01*
X30486D01*
X29742Y58644D02*
Y63368D01*
Y58644D02*
Y58600D01*
X33636Y54707D01*
Y48998D01*
X29742Y63368D02*
X39148D01*
X41510Y61006D01*
X56196D01*
X57958Y62768D01*
X30326Y17822D02*
Y19434D01*
X28518Y21242D01*
Y29116D01*
X25762Y31872D01*
X13557D01*
Y62187D01*
X14738Y63368D01*
X29742D01*
X35211Y28329D02*
X33636D01*
X23793Y38171D01*
X20250D01*
X36785Y25179D02*
X39148D01*
X39935Y24392D01*
Y23211D01*
X41510Y21636D01*
Y19642D01*
X43478Y17674D01*
X47494D01*
X36785Y48998D02*
X39344D01*
X39935Y48407D01*
Y38959D01*
X36742D01*
X36785Y51557D02*
Y58600D01*
X36742Y58644D01*
X47494Y22674D02*
X44015D01*
X41510Y25179D01*
Y27148D01*
X39935Y28722D01*
Y33447D01*
X38360Y35022D01*
X30923D01*
X29742Y36203D01*
Y38959D01*
X47494Y27674D02*
X43346D01*
X41904Y29116D01*
Y50376D01*
X40722Y51557D01*
X36785D01*
X47494Y37674D02*
X52244D01*
X53715Y36203D01*
Y15337D01*
X52927Y14549D01*
X41510D01*
X38237Y17822D01*
X38200D01*
X47494Y42674D02*
X53937D01*
X56470Y40140D01*
Y12974D01*
X53444Y9948D01*
X38200D01*
X68794Y32674D02*
X61996D01*
X59226Y29904D01*
Y12187D01*
X52533Y5494D01*
X32061D01*
X30326Y7229D01*
Y9948D01*
X75762Y11793D02*
X65421D01*
X61589Y15626D01*
Y26788D01*
X62474Y27674D01*
X68794D01*
X85561Y22817D02*
Y29116D01*
X92691D01*
X96628Y33053D01*
Y56478D01*
X95053Y58053D01*
X91116D01*
X96234Y108644D02*
Y103089D01*
X97809Y101514D01*
D02*
D17*
X33636Y72416D03*
Y85816D03*
D02*
D18*
X111483Y38177D03*
Y78177D03*
D02*
D70*
X20250Y38171D03*
Y48171D03*
Y58171D03*
Y68171D03*
Y78171D03*
D02*
D20*
X30326Y9948D03*
Y17822D03*
X38200Y9948D03*
Y17822D03*
D02*
D21*
X50258Y66518D03*
X57958Y62768D03*
Y70268D03*
D02*
D22*
X20483Y23728D03*
D02*
D79*
X63798Y107025D02*
X87307D01*
Y102125D01*
D02*
D80*
X47022Y82309D03*
Y89309D03*
X54896Y82309D03*
Y89309D03*
X63557Y82309D03*
Y89309D03*
X70644Y58293D03*
Y65293D03*
X71746Y94712D03*
Y101712D03*
X97809Y94514D03*
Y101514D03*
D02*
D81*
X77378Y37300D03*
Y43009D03*
D02*
D82*
X29742Y38959D03*
Y58644D03*
X36742Y38959D03*
Y58644D03*
X54447Y55100D03*
X61447D03*
X78561Y22817D03*
Y29116D03*
X82498Y76360D03*
X84959Y36083D03*
Y43683D03*
X85561Y22817D03*
Y29116D03*
X87616Y8250D03*
X89498Y76360D03*
X91657Y84625D03*
X91959Y36083D03*
Y43683D03*
X94616Y8250D03*
X98657Y84625D03*
D02*
D83*
X78911Y10219D03*
Y13368D03*
D02*
D84*
X75762Y11793D03*
D02*
D85*
X47494Y17674D03*
Y22674D03*
Y27674D03*
Y32674D03*
Y37674D03*
Y42674D03*
Y47674D03*
X68794Y17674D03*
Y22674D03*
Y27674D03*
Y32674D03*
Y37674D03*
Y42674D03*
Y47674D03*
D02*
D86*
X79807Y102125D03*
X79857Y92725D03*
X83557D03*
X87257D03*
X87307Y102125D03*
D02*
D87*
X63588Y98003D03*
Y106861D03*
D02*
D88*
X30486Y46439D03*
Y48998D03*
Y51557D03*
X36785Y46439D03*
Y48998D03*
Y51557D03*
D02*
D89*
X80880Y58053D03*
Y65533D03*
X91116Y58053D03*
Y61793D03*
Y65533D03*
D02*
D90*
X47652Y96437D03*
Y108248D03*
X54621Y96437D03*
Y108248D03*
D02*
D91*
X33636Y25179D03*
X36785D03*
D02*
D92*
X35211Y28329D03*
X0Y0D02*
M02*
